<mxfile host="Electron" modified="2023-07-08T09:22:49.267Z" agent="Mozilla/5.0 (Macintosh; Intel Mac OS X 10_15_7) AppleWebKit/537.36 (KHTML, like Gecko) draw.io/21.6.1 Chrome/112.0.5615.204 Electron/24.6.1 Safari/537.36" etag="S0I7J7gKDLJsYOwbhd8J" version="21.6.1" type="device" pages="2">
  <diagram name="事件循环" id="zlUdtdT9eII4_o3EeiM1">
    <mxGraphModel dx="954" dy="674" grid="1" gridSize="10" guides="1" tooltips="1" connect="1" arrows="1" fold="1" page="1" pageScale="1" pageWidth="827" pageHeight="1169" math="0" shadow="0">
      <root>
        <mxCell id="0" />
        <mxCell id="1" parent="0" />
        <mxCell id="U76VBTNHR9buu1vw7rCR-1" value="&lt;div&gt;function second() {&lt;/div&gt;&lt;div&gt;&amp;nbsp; console.log(2);&lt;/div&gt;&lt;div&gt;}&lt;/div&gt;&lt;div&gt;function first() {&lt;/div&gt;&lt;div&gt;&amp;nbsp; console.log(1);&lt;/div&gt;&lt;div&gt;&amp;nbsp; second();&lt;/div&gt;&lt;div&gt;}&lt;/div&gt;&lt;div&gt;setTimeout(function fourth() {&lt;/div&gt;&lt;div&gt;&amp;nbsp; console.log(4)&lt;/div&gt;&lt;div&gt;},0);&lt;/div&gt;&lt;div&gt;first();&lt;/div&gt;&lt;div&gt;console.log(3);&lt;/div&gt;" style="rounded=0;whiteSpace=wrap;html=1;align=left;verticalAlign=top;spacing=6;horizontal=1;labelBackgroundColor=none;labelBorderColor=none;" parent="1" vertex="1">
          <mxGeometry x="490" y="219.5" width="170" height="200.5" as="geometry" />
        </mxCell>
        <mxCell id="4Lukv0WDFPyKIsfIGV4d-11" value="" style="group" parent="1" vertex="1" connectable="0">
          <mxGeometry x="250" y="200" width="230" height="118" as="geometry" />
        </mxCell>
        <mxCell id="4Lukv0WDFPyKIsfIGV4d-1" value="&lt;div style=&quot;border-color: var(--border-color);&quot;&gt;setTimeout(function fourth() {&lt;/div&gt;&lt;div style=&quot;border-color: var(--border-color);&quot;&gt;&amp;nbsp; console.log(4)&lt;/div&gt;&lt;div style=&quot;border-color: var(--border-color);&quot;&gt;},0);&lt;/div&gt;" style="rounded=0;whiteSpace=wrap;html=1;container=0;align=left;verticalAlign=top;spacing=6;" parent="4Lukv0WDFPyKIsfIGV4d-11" vertex="1">
          <mxGeometry y="30" width="230" height="88" as="geometry" />
        </mxCell>
        <mxCell id="4Lukv0WDFPyKIsfIGV4d-9" value="宿主环境" style="text;html=1;strokeColor=none;fillColor=none;align=center;verticalAlign=middle;whiteSpace=wrap;rounded=0;" parent="4Lukv0WDFPyKIsfIGV4d-11" vertex="1">
          <mxGeometry x="74.41176470588236" width="81.1764705882353" height="30" as="geometry" />
        </mxCell>
        <mxCell id="4Lukv0WDFPyKIsfIGV4d-12" value="" style="group;spacing=4;spacingLeft=10;align=right;" parent="1" vertex="1" connectable="0">
          <mxGeometry x="130" y="200" width="110" height="220" as="geometry" />
        </mxCell>
        <mxCell id="U76VBTNHR9buu1vw7rCR-2" value="" style="rounded=0;whiteSpace=wrap;html=1;container=0;align=left;verticalAlign=top;spacing=6;" parent="4Lukv0WDFPyKIsfIGV4d-12" vertex="1">
          <mxGeometry y="30" width="110" height="190" as="geometry" />
        </mxCell>
        <mxCell id="U76VBTNHR9buu1vw7rCR-3" value="执行栈" style="text;html=1;strokeColor=none;fillColor=none;align=center;verticalAlign=middle;whiteSpace=wrap;rounded=0;container=0;" parent="4Lukv0WDFPyKIsfIGV4d-12" vertex="1">
          <mxGeometry x="25" width="60" height="30" as="geometry" />
        </mxCell>
        <mxCell id="4Lukv0WDFPyKIsfIGV4d-13" value="" style="group" parent="1" vertex="1" connectable="0">
          <mxGeometry x="250" y="330" width="230" height="90" as="geometry" />
        </mxCell>
        <mxCell id="4Lukv0WDFPyKIsfIGV4d-3" value="" style="rounded=0;whiteSpace=wrap;html=1;container=0;align=left;verticalAlign=top;spacing=6;" parent="4Lukv0WDFPyKIsfIGV4d-13" vertex="1">
          <mxGeometry y="30" width="229.99999999999997" height="60" as="geometry" />
        </mxCell>
        <mxCell id="4Lukv0WDFPyKIsfIGV4d-4" value="任务队列" style="text;html=1;strokeColor=none;fillColor=none;align=center;verticalAlign=middle;whiteSpace=wrap;rounded=0;container=0;" parent="4Lukv0WDFPyKIsfIGV4d-13" vertex="1">
          <mxGeometry x="80.11666666666673" width="69.7538888888889" height="30" as="geometry" />
        </mxCell>
        <mxCell id="4Lukv0WDFPyKIsfIGV4d-14" value="打印结果:" style="text;html=1;strokeColor=none;fillColor=none;align=left;verticalAlign=middle;whiteSpace=wrap;rounded=0;fontSize=14;" parent="1" vertex="1">
          <mxGeometry x="130" y="430" width="70" height="30" as="geometry" />
        </mxCell>
        <mxCell id="4Lukv0WDFPyKIsfIGV4d-15" value="执行同步代码完毕后，按照先进后出的顺序，依次将同步代码弹出执行栈。" style="text;html=1;strokeColor=none;fillColor=none;align=left;verticalAlign=middle;whiteSpace=wrap;rounded=0;fontSize=16;" parent="1" vertex="1">
          <mxGeometry x="130" y="140" width="540" height="50" as="geometry" />
        </mxCell>
        <mxCell id="4Lukv0WDFPyKIsfIGV4d-22" value="1&lt;br&gt;2&lt;br&gt;" style="rounded=0;whiteSpace=wrap;html=1;align=left;verticalAlign=top;spacing=6;" parent="1" vertex="1">
          <mxGeometry x="200" y="430" width="110" height="100" as="geometry" />
        </mxCell>
        <mxCell id="4Lukv0WDFPyKIsfIGV4d-25" value="" style="rounded=0;whiteSpace=wrap;html=1;strokeColor=#FF0000;dashed=1;strokeWidth=2;fillColor=none;" parent="1" vertex="1">
          <mxGeometry x="494" y="375" width="130" height="15" as="geometry" />
        </mxCell>
      </root>
    </mxGraphModel>
  </diagram>
  <diagram id="ub-G2DfWFDOeiFnIKyKp" name="微任务宏任务">
    <mxGraphModel dx="954" dy="674" grid="1" gridSize="10" guides="1" tooltips="1" connect="1" arrows="1" fold="1" page="1" pageScale="1" pageWidth="827" pageHeight="1169" math="0" shadow="0">
      <root>
        <mxCell id="0" />
        <mxCell id="1" parent="0" />
        <mxCell id="sIb3O-9WHTRWfLGMxjg0-1" value="&lt;div style=&quot;border-color: var(--border-color);&quot;&gt;function first() {&lt;/div&gt;&lt;div style=&quot;border-color: var(--border-color);&quot;&gt;&amp;nbsp; &lt;span style=&quot;&quot;&gt;&lt;span style=&quot;&quot;&gt;&amp;nbsp;&amp;nbsp;&amp;nbsp;&amp;nbsp;&lt;/span&gt;&lt;/span&gt;console.log(1);&lt;/div&gt;&lt;div style=&quot;border-color: var(--border-color);&quot;&gt;&lt;span style=&quot;background-color: initial;&quot;&gt;}&lt;/span&gt;&lt;/div&gt;setTimeout(function second() {&lt;br&gt;&lt;span style=&quot;&quot;&gt;&lt;span style=&quot;&quot;&gt;&amp;nbsp;&amp;nbsp;&amp;nbsp;&amp;nbsp;&lt;span style=&quot;&quot;&gt;&lt;span style=&quot;&quot;&gt;&amp;nbsp;&amp;nbsp;&amp;nbsp;&amp;nbsp;&lt;/span&gt;&lt;/span&gt;&lt;/span&gt;&lt;/span&gt;console.log(2);&lt;br&gt;},0);&lt;br&gt;function third() {&lt;br&gt;&lt;span style=&quot;&quot;&gt;&lt;span style=&quot;&quot;&gt;&amp;nbsp;&amp;nbsp;&amp;nbsp;&amp;nbsp;&lt;/span&gt;&lt;/span&gt;console.log(3);&lt;br&gt;}&lt;br&gt;const p = new Promise(function fourth(resolve) {&lt;br&gt;&lt;span style=&quot;&quot;&gt;&lt;span style=&quot;white-space: pre;&quot;&gt;&amp;nbsp;&amp;nbsp;&amp;nbsp;&amp;nbsp;&lt;/span&gt;&lt;/span&gt;third(3);&lt;br&gt;&lt;span style=&quot;&quot;&gt;&lt;span style=&quot;&quot;&gt;&amp;nbsp;&amp;nbsp;&amp;nbsp;&amp;nbsp;&lt;/span&gt;&lt;/span&gt;resolve(5);&lt;br&gt;&lt;span style=&quot;&quot;&gt;&lt;span style=&quot;&quot;&gt;&amp;nbsp;&amp;nbsp;&amp;nbsp;&amp;nbsp;&lt;/span&gt;&lt;/span&gt;console.log(4);&lt;br&gt;});&lt;br&gt;p.then(function fifth(data) {&lt;br&gt;&lt;span style=&quot;&quot;&gt;&lt;span style=&quot;&quot;&gt;&amp;nbsp;&amp;nbsp;&amp;nbsp;&amp;nbsp;&lt;/span&gt;&lt;/span&gt;console.log(data);&lt;br&gt;});&lt;br&gt;first();" style="rounded=0;whiteSpace=wrap;html=1;align=left;verticalAlign=top;spacing=6;horizontal=1;labelBackgroundColor=none;labelBorderColor=none;" parent="1" vertex="1">
          <mxGeometry x="490" y="219.5" width="210" height="300.5" as="geometry" />
        </mxCell>
        <mxCell id="9Zfe96hyd8X6TDcERBHZ-1" value="" style="group;spacing=4;spacingLeft=10;align=right;" parent="1" vertex="1" connectable="0">
          <mxGeometry x="130" y="200" width="110" height="220" as="geometry" />
        </mxCell>
        <mxCell id="9Zfe96hyd8X6TDcERBHZ-2" value="second" style="rounded=0;whiteSpace=wrap;html=1;container=0;align=left;verticalAlign=top;spacing=6;" parent="9Zfe96hyd8X6TDcERBHZ-1" vertex="1">
          <mxGeometry y="30" width="110" height="190" as="geometry" />
        </mxCell>
        <mxCell id="9Zfe96hyd8X6TDcERBHZ-3" value="执行栈" style="text;html=1;strokeColor=none;fillColor=none;align=center;verticalAlign=middle;whiteSpace=wrap;rounded=0;container=0;" parent="9Zfe96hyd8X6TDcERBHZ-1" vertex="1">
          <mxGeometry x="25" width="60" height="30" as="geometry" />
        </mxCell>
        <mxCell id="ECFHezq3QLYix5tQms4J-1" value="" style="group" parent="1" vertex="1" connectable="0">
          <mxGeometry x="250" y="200" width="230" height="118" as="geometry" />
        </mxCell>
        <mxCell id="ECFHezq3QLYix5tQms4J-2" value="&lt;div style=&quot;border-color: var(--border-color);&quot;&gt;&lt;div style=&quot;border-color: var(--border-color);&quot;&gt;&lt;br&gt;&lt;/div&gt;&lt;/div&gt;" style="rounded=0;whiteSpace=wrap;html=1;container=0;align=left;verticalAlign=top;spacing=6;" parent="ECFHezq3QLYix5tQms4J-1" vertex="1">
          <mxGeometry y="30" width="230" height="88" as="geometry" />
        </mxCell>
        <mxCell id="ECFHezq3QLYix5tQms4J-3" value="宿主环境" style="text;html=1;strokeColor=none;fillColor=none;align=center;verticalAlign=middle;whiteSpace=wrap;rounded=0;" parent="ECFHezq3QLYix5tQms4J-1" vertex="1">
          <mxGeometry x="74.41176470588236" width="81.1764705882353" height="30" as="geometry" />
        </mxCell>
        <mxCell id="ldCAYq0EMdEMqqbYDRma-1" value="" style="group" parent="1" vertex="1" connectable="0">
          <mxGeometry x="250" y="330" width="110" height="90" as="geometry" />
        </mxCell>
        <mxCell id="ldCAYq0EMdEMqqbYDRma-2" value="" style="rounded=0;whiteSpace=wrap;html=1;container=0;align=left;verticalAlign=top;spacing=6;" parent="ldCAYq0EMdEMqqbYDRma-1" vertex="1">
          <mxGeometry y="30" width="109.99999999999997" height="60" as="geometry" />
        </mxCell>
        <mxCell id="ldCAYq0EMdEMqqbYDRma-3" value="微任务队列" style="text;html=1;strokeColor=none;fillColor=none;align=center;verticalAlign=middle;whiteSpace=wrap;rounded=0;container=0;" parent="ldCAYq0EMdEMqqbYDRma-1" vertex="1">
          <mxGeometry x="24.16" width="61.68" height="30" as="geometry" />
        </mxCell>
        <mxCell id="ha6JDbjSW2bwGYByRtQF-1" value="" style="group" vertex="1" connectable="0" parent="1">
          <mxGeometry x="370" y="330" width="110" height="90" as="geometry" />
        </mxCell>
        <mxCell id="ha6JDbjSW2bwGYByRtQF-2" value="" style="rounded=0;whiteSpace=wrap;html=1;container=0;align=left;verticalAlign=top;spacing=6;" vertex="1" parent="ha6JDbjSW2bwGYByRtQF-1">
          <mxGeometry y="30" width="109.99999999999997" height="60" as="geometry" />
        </mxCell>
        <mxCell id="ha6JDbjSW2bwGYByRtQF-3" value="宏任务队列" style="text;html=1;strokeColor=none;fillColor=none;align=center;verticalAlign=middle;whiteSpace=wrap;rounded=0;container=0;" vertex="1" parent="ha6JDbjSW2bwGYByRtQF-1">
          <mxGeometry x="24.16" width="61.68" height="30" as="geometry" />
        </mxCell>
        <mxCell id="nPl2ovzeYjbsqY_FvNup-1" value="打印结果:" style="text;html=1;strokeColor=none;fillColor=none;align=left;verticalAlign=middle;whiteSpace=wrap;rounded=0;fontSize=14;" vertex="1" parent="1">
          <mxGeometry x="130" y="430" width="70" height="30" as="geometry" />
        </mxCell>
        <mxCell id="nPl2ovzeYjbsqY_FvNup-2" value="3&lt;br&gt;4&lt;br&gt;1&lt;br&gt;5&lt;br&gt;2" style="rounded=0;whiteSpace=wrap;html=1;align=left;verticalAlign=top;spacing=6;" vertex="1" parent="1">
          <mxGeometry x="200" y="430" width="110" height="100" as="geometry" />
        </mxCell>
        <mxCell id="eG_yrhMMbtdPIKNlTe6n-1" value="微任务队列的微任务都执行完后，到宏任务队列中找宏任务，放到执行栈中执行。直至宏任务队列中没有宏任务。" style="text;html=1;strokeColor=none;fillColor=none;align=left;verticalAlign=middle;whiteSpace=wrap;rounded=0;fontSize=16;" vertex="1" parent="1">
          <mxGeometry x="130" y="140" width="540" height="50" as="geometry" />
        </mxCell>
      </root>
    </mxGraphModel>
  </diagram>
</mxfile>
